<svg xmlns="http://www.w3.org/2000/svg" width="1400" height="920" viewBox="0 0 1400 920">
<defs>
  <linearGradient id="bg" x1="0" y1="0" x2="1" y2="1"><stop stop-color="#100d0b"/><stop offset="1" stop-color="#1d1611"/></linearGradient>
  <linearGradient id="amberGrad" x1="0" y1="0" x2="1" y2="0"><stop stop-color="#a73809"/><stop offset="1" stop-color="#ff5600"/></linearGradient>
  <style>
    .title{font:700 34px Inter,Arial,sans-serif;fill:#fff7f0;letter-spacing:-1px}
    .sub{font:500 14px Inter,Arial,sans-serif;fill:#ae9d90}
    .eyebrow{font:800 11px Inter,Arial,sans-serif;fill:#ff5600;letter-spacing:2px}
    .kpi{font:750 26px Inter,Arial,sans-serif;fill:#fff7f0}
    .klabel{font:800 10px Inter,Arial,sans-serif;fill:#ae9d90;letter-spacing:1.5px}
    .small{font:500 10px Inter,Arial,sans-serif;fill:#a18b7b}
    .panelTitle{font:700 15px Inter,Arial,sans-serif;fill:#fff7f0}
    .label{font:650 12px Inter,Arial,sans-serif;fill:#e2d3c7}
    .value{font:700 11px Inter,Arial,sans-serif;fill:#fff7f0}
    .story{font:500 13px Inter,Arial,sans-serif;fill:#e9ddd3}
  </style>
</defs>
<rect width="1400" height="920" rx="28" fill="url(#bg)"/>
<rect x="1" y="1" width="1398" height="918" rx="27" fill="none" stroke="#372920"/>
<text x="60" y="64" class="eyebrow">AUGUST · EXECUTIVE ANALYTICS</text>
<text x="60" y="108" class="title">From raw signals to a decision.</text>
<text x="60" y="136" class="sub">Deterministic synthetic demo · As of 2026-08-01 · Signal → Evidence → Implication → Next decision</text>
<rect x="1138" y="52" width="198" height="34" rx="17" fill="#31190f" stroke="#913c19"/>
<text x="1162" y="74" class="eyebrow" style="font-size:9px">SYNTHETIC DEMO DATA</text>

<rect x="60" y="180" width="300" height="120" rx="18" fill="#1b1612" stroke="#372920"/>
<rect x="385" y="180" width="300" height="120" rx="18" fill="#1b1612" stroke="#372920"/>
<rect x="710" y="180" width="300" height="120" rx="18" fill="#1b1612" stroke="#372920"/>
<rect x="1035" y="180" width="300" height="120" rx="18" fill="#1b1612" stroke="#372920"/>
<text x="82" y="210" class="klabel">HOUSING · 12M</text><text x="82" y="255" class="kpi">+7.97%</text><text x="82" y="278" class="small">synthetic index change</text>
<text x="407" y="210" class="klabel">INFLATION · 12M</text><text x="407" y="255" class="kpi">-0.35 pp</text><text x="407" y="278" class="small">change in percentage points</text>
<text x="732" y="210" class="klabel">MEDIAN PROPERTY</text><text x="732" y="255" class="kpi">MXN 6.22M</text><text x="732" y="278" class="small">400 demo properties</text>
<text x="1057" y="210" class="klabel">MEDIAN PRICE / M²</text><text x="1057" y="255" class="kpi">MXN 50,096</text><text x="1057" y="278" class="small">cross-market median</text>

<rect x="60" y="335" width="610" height="300" rx="18" fill="#1b1612" stroke="#372920"/>
<text x="82" y="369" class="eyebrow" style="font-size:9px">MARKET TREND</text><text x="82" y="393" class="panelTitle">Housing index · last 24 months</text>
<line x1="70" x2="640" y1="380" y2="380" stroke="#2b221d"/><line x1="70" x2="640" y1="432.5" y2="432.5" stroke="#2b221d"/><line x1="70" x2="640" y1="485" y2="485" stroke="#2b221d"/><line x1="70" x2="640" y1="537.5" y2="537.5" stroke="#2b221d"/><line x1="70" x2="640" y1="590" y2="590" stroke="#2b221d"/>
<polyline points="70.0,572.8 94.8,560.4 119.6,536.6 144.3,519.8 169.1,542.6 193.9,531.2 218.7,502.4 243.5,488.0 268.3,480.4 293.0,459.4 317.8,451.0 342.6,441.4 367.4,427.1 392.2,416.0 417.0,401.5 441.7,408.4 466.5,407.7 491.3,390.4 516.1,405.5 540.9,394.4 565.7,369.9 590.4,357.1 615.2,360.8 640.0,353.5" fill="none" stroke="#ff5600" stroke-width="4" stroke-linecap="round" stroke-linejoin="round"/>
<circle cx="640" cy="353.5" r="5" fill="#ff5600"/>
<text x="82" y="615" class="small">Sep 2024</text><text x="594" y="615" class="small">Aug 2026</text>

<rect x="710" y="335" width="630" height="300" rx="18" fill="#1b1612" stroke="#372920"/>
<text x="732" y="369" class="eyebrow" style="font-size:9px">MACRO PRESSURE</text><text x="732" y="393" class="panelTitle">Inflation vs policy rate</text>
<line x1="745" x2="1315" y1="380" y2="380" stroke="#2b221d"/><line x1="745" x2="1315" y1="432.5" y2="432.5" stroke="#2b221d"/><line x1="745" x2="1315" y1="485" y2="485" stroke="#2b221d"/><line x1="745" x2="1315" y1="537.5" y2="537.5" stroke="#2b221d"/><line x1="745" x2="1315" y1="590" y2="590" stroke="#2b221d"/>
<polyline points="745.0,544.0 769.8,540.1 794.6,531.6 819.3,508.1 844.1,555.1 868.9,545.0 893.7,558.8 918.5,555.1 943.3,550.0 968.0,551.5 992.8,534.1 1017.6,538.7 1042.4,541.5 1067.2,541.1 1092.0,535.6 1116.7,513.4 1141.5,520.8 1166.3,504.6 1191.1,499.1 1215.9,495.7 1240.7,480.8 1265.4,486.9 1290.2,505.5 1315.0,524.5" fill="none" stroke="#ff5600" stroke-width="4" stroke-linecap="round" stroke-linejoin="round"/>
<polyline points="745.0,408.8 769.8,405.0 794.6,399.5 819.3,348.8 844.1,318.8 868.9,339.4 893.7,344.9 918.5,328.3 943.3,321.1 968.0,333.4 992.8,316.1 1017.6,312.1 1042.4,311.1 1067.2,321.3 1092.0,323.5 1116.7,317.9 1141.5,319.6 1166.3,328.1 1191.1,325.9 1215.9,318.0 1240.7,304.7 1265.4,347.3 1290.2,434.9 1315.0,427.7" fill="none" stroke="#ffd0ae" stroke-opacity=".78" stroke-width="4" stroke-linecap="round" stroke-linejoin="round"/>
<circle cx="1000" cy="365" r="5" fill="#ff5600"/><text x="1013" y="369" class="small">Inflation</text>
<circle cx="1080" cy="365" r="5" fill="#ffd0ae"/><text x="1093" y="369" class="small">Policy rate</text>
<text x="732" y="615" class="small">Sep 2024</text><text x="1265" y="615" class="small">Aug 2026</text>

<rect x="60" y="660" width="650" height="220" rx="18" fill="#1b1612" stroke="#372920"/>
<text x="82" y="690" class="eyebrow" style="font-size:9px">LOCAL PRICING</text>
<text x="80" y="716" class="label">West</text><rect x="190" y="700" width="390" height="18" rx="9" fill="#34251c"/><rect x="190" y="700" width="390" height="18" rx="9" fill="url(#amberGrad)"/><text x="600" y="715" class="value">MXN 60,605</text>
<text x="80" y="762" class="label">Central</text><rect x="190" y="746" width="390" height="18" rx="9" fill="#34251c"/><rect x="190" y="746" width="323.0" height="18" rx="9" fill="url(#amberGrad)"/><text x="600" y="761" class="value">MXN 50,214</text>
<text x="80" y="808" class="label">South</text><rect x="190" y="792" width="390" height="18" rx="9" fill="#34251c"/><rect x="190" y="792" width="301.7" height="18" rx="9" fill="url(#amberGrad)"/><text x="600" y="807" class="value">MXN 46,887</text>
<text x="80" y="854" class="label">North</text><rect x="190" y="838" width="390" height="18" rx="9" fill="#34251c"/><rect x="190" y="838" width="266.8" height="18" rx="9" fill="url(#amberGrad)"/><text x="600" y="853" class="value">MXN 41,481</text>

<rect x="735" y="660" width="605" height="220" rx="18" fill="#20150f" stroke="#913c19"/>
<text x="760" y="692" class="eyebrow" style="font-size:9px">NEXT DECISION</text>
<text x="760" y="727" class="panelTitle">Underwrite locally. Stress-test the downside.</text>
<text x="760" y="758" class="story">Housing momentum is positive, but nominal appreciation is not</text>
<text x="760" y="780" class="story">enough. Separate inflation, financing pressure and neighborhood</text>
<text x="760" y="802" class="story">pricing before treating appreciation as durable value creation.</text>
<text x="760" y="842" class="small">Evidence layer: Python · FastAPI · DuckDB · Power BI / Tableau exports</text>
</svg>